<svg xmlns="http://www.w3.org/2000/svg" viewBox="0 0 184.3 110.6" xml:space="preserve"><path fill="none" d="M0 0h184.3v110.6H0z"/><path fill="#024589" d="M52.1 89.5h-.7V21.3h.7v68.2zm66.7-68.2v68.2h.8V21.3h-.8zM26.5 46.5l3.7-10.3h-1.5l-3 9-3-9h-1.4l3.6 10.3h1.6zm5-10.3v10.3h7.3v-1.1h-5.9v-3.6h5.4v-1.2H33v-3.3h5.8v-1.1h-7.1zm9.4 0v10.3h1.3v-4.4h3.4c1.3 0 1.6.9 1.7 1.9l.3 2.5H49l-.4-2.8c-.1-1-.3-2-1.5-2.2 1.2-.3 1.8-1.4 1.8-2.6 0-1.7-1.2-2.7-3.2-2.7H41zM45 41h-2.9v-3.7h3.5c1.2 0 1.8.8 1.8 1.8 0 1.5-1.1 1.9-2.4 1.9zm85.3 1.8v-6.6H129v6.6c0 1.8-1 2.8-2.7 2.8-1.8 0-2.8-1-2.8-2.8v-6.6H122v6.6c0 2.8 1.6 4 4.2 4s4.1-1.4 4.1-4zm2.6-6.6v10.3h1.3v-8.3l5.5 8.3h1.5V36.2H140v8.4l-5.5-8.4H133zm18.6 9 .2 1.3h1v-5.4h-4.5v1.1h3.3c0 2-1.2 3.4-3.4 3.4-2.3 0-3.5-2-3.5-4.1 0-2.2 1-4.4 3.5-4.4 1.6 0 2.8.7 3.1 2.3h1.4c-.4-2.4-2.2-3.5-4.5-3.5-3.2 0-4.9 2.6-4.9 5.7 0 2.7 1.9 5.2 5 5.2a4 4 0 0 0 3.3-1.6zm9.7-6h1.3c-.1-2.3-1.7-3.3-3.9-3.3-1.8 0-3.7 1-3.7 3s1.7 2.4 3.3 2.8c1.7.4 3.3.6 3.3 2 0 1.5-1.4 2-2.6 2-1.6 0-3-.8-3-2.6h-1.3c0 2.6 2 3.7 4.2 3.7 2 0 4-.9 4-3.1 0-2-1.6-2.6-3.2-3-1.7-.4-3.3-.6-3.3-1.8 0-1.4 1.1-1.8 2.3-1.8 1.4 0 2.4.6 2.6 2.1zM58.9 46.8c1.2 0 2.8-.2 3.8-1.2.5-.5.8-1.3.8-2.3 0-2-1.6-2.7-3-3-.3-.2-.7-.3-1-.3-1-.3-2-.5-2-1 0-.3.1-.4.2-.5.3-.3.8-.4 1-.4.4 0 1 .1 1.4.5.2.2.2.4.2.7h3a3 3 0 0 0-1.4-2.6c-.8-.5-1.8-.8-3-.8-2 0-4.2 1-4.2 3.2 0 2 1.5 2.7 3 3l.9.3c1 .3 2 .5 2 1.2s-.7 1-1.5 1c-1.2 0-1.8-.5-1.9-1.5V43h-2.8c0 2.4 1.7 3.8 4.5 3.8zm9.6-.2V36.1h-2.9v10.5h3zm7.6.2c3 0 5-1.6 5-4.3h.1-3c-.1 1.2-.9 1.8-2.1 1.8-.7 0-1.2-.2-1.7-.6-.5-.5-.8-1.3-.8-2.3 0-1 .3-1.9.8-2.4.5-.4 1-.6 1.7-.6 1.2 0 2 .5 2 1.5h3c0-2.5-2.5-4-5-4a5.3 5.3 0 0 0-5.5 5.5c0 1.5.6 2.9 1.6 3.9s2.4 1.5 4 1.5zm10.3-.2v-4.2h4v4.2h3V36.1h-3v3.8h-4V36h-3v10.5h3zm18.4 0v-2.5h-5.7v-1.8h5v-2.2h-5v-1.7h5.6v-2.3h-8.5v10.5h8.6zm5.3 0h-2.9V36.1h5.4c1.3 0 2.3.4 3 1 .5.5.7 1.2.7 2 0 1.2-.5 2.1-1.5 2.6.8.3 1.3 1.1 1.4 2.5l.2 2.4h-2.7l-.2-1.7c0-1-.2-2-1.4-2h-2v3.7zm0-6h2.2c.8 0 1.2-.4 1.2-1.1 0-.3-.1-.6-.3-.7-.2-.2-.6-.4-1-.4h-2v2.2zM69.7 50.8l4 10.5h-3l-.6-1.9H67l-.6 1.9h-2.7L67 50.8h2.6zm-.3 6.5-1-3.4-1 3.4h2zm46.8 1.6.2 2.4h-2.7l-.2-1.8c0-1-.2-2-1.4-2h-2v3.8h-2.9V50.7h5.4c1.3 0 2.3.4 3 1 .5.6.7 1.2.7 2 0 1.2-.5 2.2-1.5 2.6.8.3 1.3 1.2 1.4 2.6zm-2.7-4.8c0-.3-.1-.5-.3-.7-.2-.2-.6-.3-1-.3h-2v2.1h2.1c.8 0 1.2-.3 1.2-1zM60 50.8l-3 3.8v-3.8h-2.6v10.5h2.6V58l1-1 2.2 4.3h3.3l-3.8-6.4 3.9-4.1H60zM81 61.3h2.6V50.8H81l-2 4-2.2-4h-2.5v10.5H77v-5.7l2 3.3 2-3.2v5.6zm11.4-10.5-2.1 4-2.1-4h-2.6v10.5h2.6v-5.7l2 3.3h.1l2-3.2v5.6H95V50.8h-2.5zm7.4 8V57h5.1v-2.3h-5v-1.6h5.5v-2.3H97v10.5h8.5v-2.5h-5.7zM62 70.2c1 .3 1.6 1.3 1.6 2.4 0 1-.2 1.8-.8 2.3-.7.7-1.8 1-3.3 1h-5V65.4h4.9c1.4 0 2.5.3 3.1 1 .5.3.7 1 .7 1.7 0 .8-.5 1.6-1.2 2zm-2.7-.7c.4 0 1-.2 1-1 0-.2 0-.4-.2-.6-.2-.2-.5-.2-.8-.2h-2v1.8h2zm1.5 3c0-.3-.1-.6-.3-.8-.3-.2-.6-.3-1.1-.3h-2v2.2h2c1 0 1.4-.3 1.4-1zm9.8-7.1 3.9 10.5h-3l-.5-1.8h-3.3l-.5 1.8h-2.8L68 65.4h2.7zm-.3 6.5-1-3.3-1 3.3h2zm10.1-6.5-2 4.1-2-4.1h-3.2L77 72v4h2.9v-4l3.8-6.6h-3.3zm7.2 8v-1.8h5v-2.2h-5v-1.7H93v-2.3h-8.4v10.5h8.6v-2.5h-5.7zm26.1-8v6.2l-3.5-6.2h-2.9V76h2.6v-6.2l3.5 6.2h2.9V65.4h-2.6zm-9.1 8.1.2 2.4H102l-.1-1.7c-.1-1-.3-2-1.5-2h-2v3.7h-2.8V65.4h5.4c1.2 0 2.3.4 3 1 .4.5.7 1.2.7 2 0 1.2-.6 2.2-1.5 2.6.8.3 1.3 1.1 1.4 2.5zm-2.8-4.7c0-.3 0-.5-.2-.7-.3-.2-.6-.4-1-.4h-2.1V70h2.2c.7 0 1.1-.4 1.1-1.1z"/></svg>